<svg class="icon" width="64" height="64" viewBox="0 0 1024 1024" xmlns="http://www.w3.org/2000/svg"><path d="M512 73.143q119.429 0 220.286 58.857T892 291.714 950.857 512 892 732.286 732.286 892 512 950.857 291.714 892 132 732.286 73.143 512 132 291.714 291.714 132 512 73.143zm156.571 297.714q-1.142.572-5.428 5.429t-7.714 5.428q1.142 0 2.571-2.857t2.857-6.286 2-4q3.429-4 12.572-8.571 8-3.429 29.714-6.857 19.428-4.572 29.143 6.286-1.143-1.143 5.428-7.429t8.286-6.857q1.714-1.143 8.571-2.572t8.572-4.285l1.143-12.572q-6.857.572-10-4t-3.715-12q0 1.143-3.428 4.572 0-4-2.572-4.572t-6.571.572-5.143.571q-5.714-1.714-8.571-4.286t-4.572-9.428-2.285-8.572q-1.143-2.857-5.429-6.285t-5.429-5.715q-.571-1.142-1.428-3.142t-1.714-3.715-2.286-3.143-3.143-1.428-4 2.857-4.286 5.714-2.571 2.857q-1.714-1.142-3.429-.857t-2.571.572T680.57 278t-2.857 2q-1.714 1.143-4.857 1.714T668 282.857q8.571-2.857-.571-6.286-5.715-2.285-9.143-1.714 5.143-2.286 4.285-6.857t-4.857-8h2.857q-.571-2.286-4.857-4.857t-10-4.857-7.428-3.429q-4.572-2.857-19.429-5.428T600 241.143q-2.857 3.428-2.571 6t2.285 8 2 7.143q.572 3.428-3.143 7.428t-3.714 6.857q0 4 8 8.858t5.714 12.285q-1.714 4.572-9.142 9.143t-9.143 6.857q-2.857 4.572-.857 10.572t6 9.428q1.142 1.143.857 2.286t-2 2.571-3.143 2.286-3.714 2L585.714 344q-6.285 2.857-11.714-3.429t-7.714-14.857q-4-14.285-9.143-17.143Q544 304 540.57 309.143q-2.857-7.429-23.428-14.857Q502.857 289.143 484 292q3.429-.571 0-8.571-4-8.572-10.857-6.858 1.714-3.428 2.286-10t.571-7.714q1.714-7.428 6.857-13.143.572-.571 4-4.857t5.429-7.714.285-3.429q20 2.286 28.572-6.285 2.857-2.858 6.571-9.715t6-9.714q5.143-3.429 8-3.143T550 204t8.286 2.857q8 .572 8.857-6.286t-4.286-11.428q6.857.571 1.714-9.714-2.285-4-4.571-5.143-6.857-2.286-15.429 2.857-4.571 2.286 1.143 4.571-.571-.571-5.428 6t-9.429 10-9.143-2.857q-.571-.571-3.143-7.714t-5.428-7.714q-4.572 0-9.143 8.571 1.714-4.571-6.286-8.571T484 174.857q10.857-6.857-4.571-15.428-4-2.286-11.715-2.858t-11.143 2.286q-2.857 4-3.142 6.572t2.857 4.571 6 3.143 6.571 2.286 4.857 1.714q8 5.714 4.572 8-1.143.571-4.857 2t-6.572 2.571T463.43 192q-1.715 2.286 0 8t-1.143 8q-2.857-2.857-5.143-10t-4-9.429q4 5.143-14.286 3.429l-5.714-.571q-2.286 0-9.143 1.142t-11.714.572-7.715-4.572q-2.285-4.571 0-11.428.572-2.286 2.286-1.143-2.286-1.714-6.286-5.429t-5.714-4.857q-26.286 8.572-53.714 23.429 3.428.571 6.857-.572 2.857-1.142 7.429-3.714t5.714-3.143q19.428-8 24-4l2.857-2.857q8 9.143 11.429 14.286-4-2.286-17.143-.572-11.429 3.429-12.572 6.858 4 6.857 2.857 10.285Q370.286 204 366 200t-8.286-6.286-8.571-2.857q-9.143 0-12.572.572-83.428 45.714-134.285 126.857 4 4 6.857 4.571 2.286.572 2.857 5.143t1.429 6.286T220 332.57q5.143 4.572 1.714 10.858.572-.572 25.143 15.428 10.857 9.714 12 12 1.714 6.286-5.714 10.286Q252.57 380 248 376t-5.143-2.286q-1.714 2.857.286 10.572t6 7.143q-4 0-5.429 9.142t-1.428 20.286-.572 13.429l1.143.571q-1.714 6.857 3.143 19.714t12.286 11.143q-7.429 1.715 11.428 24.572 3.429 4.571 4.572 5.143 1.714 1.142 6.857 4.285t8.571 5.715 5.715 6q2.285 2.857 5.714 12.857t8 13.428q-1.143 3.429 5.428 11.429t6 13.143q-.571 0-1.428.571t-1.429.572q1.715 4 8.857 8t8.858 7.428q.571 1.714 1.142 5.714t1.715 6.286 4.571 1.143q1.143-11.429-13.714-35.429-8.572-14.285-9.714-16.571-1.715-2.857-3.143-8.857t-2.572-8.286q1.143 0 3.429.857t4.857 2 4.286 2.286 1.143 1.714q-1.715 4 1.142 10t6.858 10.572 9.714 10.857T352 568.57q3.429 3.429 8 11.143t0 7.715q5.143 0 11.429 6t9.714 11.142q2.857 4.572 4.571 14.858t2.857 13.714q1.143 4 4.858 7.714t7.142 5.429l9.143 4.571 7.429 4q2.857 1.143 10.571 6T440 667.43q5.714 2.285 9.143 2.285t8.286-1.428 7.714-2q8.571-1.143 16.571 8.571t12 12q20.572 10.857 31.429 6.286-1.143.571.286 4.286t4.571 8.857 5.143 8.285 3.143 4.858q2.857 3.428 10.285 8.571t10.286 8.571q3.429-2.285 4-5.142-1.714 4.571 4 11.428t10.286 5.714q8-1.714 8-18.285-17.714 8.571-28-10.286 0-.571-1.429-3.143T553.43 712 552 707.143t0-4.286 2.857-1.714q5.143 0 5.714-2T559.43 692t-2.286-7.429q-.572-4.571-6.286-11.428T544 664.57q-2.857 5.143-9.143 4.572T525.714 664q0 .571-.857 3.143t-.857 3.714q-7.429 0-8.571-.571.571-1.715 1.428-10t2-12.857q.572-2.286 3.143-6.858t4.286-8.285 2.285-7.143-2.571-5.429-10-1.428q-10.857.571-14.857 11.428-.572 1.715-1.714 6t-2.858 6.572-5.142 4q-4 1.714-13.715 1.143T464 644.57Q456.571 640 451.143 628t-5.429-21.143q0-5.714 1.429-15.143t1.714-14.285-3.143-14q1.715-1.143 5.143-5.429t5.714-6q1.143-.571 2.572-.857t2.571 0 2.286-.857 1.714-3.429q-.571-.571-2.285-1.714-1.715-1.714-2.286-1.714 4 1.714 16.286-.858t15.714.858q8.571 6.285 12.571-1.143 0-.572-1.428-5.429t-.286-7.714q2.857 15.428 16.571 5.143 1.715 1.714 8.858 2.857t10 2.857q1.714 1.143 4 3.143t3.142 2.571 2.858-.285 4.857-3.715q5.714 8 6.857 13.715 6.286 22.857 10.857 25.142 4 1.715 6.286 1.143t2.571-5.428 0-8-.857-7.143l-.571-4.572v-10.285l-.572-4.572q-8.571-1.714-10.571-6.857t.857-10.571 8.571-10.572q.572-.571 4.572-2t8.857-3.714 7.143-4.571q12-10.858 8.571-20 4 0 6.286-5.143-.572 0-2.857-1.715T606 473.714t-2.571-1.143q5.142-2.857 1.142-9.142 2.858-1.715 4.286-6.286t4.286-5.714q5.143 6.857 12 1.142 4.571-4.571.571-9.142 2.857-4 11.715-6T648 432q4 1.143 4.571-1.143t.572-6.857 1.714-6.857q2.286-2.857 8.572-5.143t7.428-2.857l9.714-6.286q1.715-2.286 0-2.286 10.286 1.143 17.715-6.285Q704 388 694.857 382.857q1.714-3.428-1.714-5.428t-8.572-3.143q1.715-.572 6.572-.286t6-.857q8.571-5.714-4-9.143-9.714-2.857-24.572 6.857zM575.43 872Q693.143 851.429 776 764q-1.714-1.714-7.143-2.571t-7.143-2q-10.285-4-13.714-4.572.571-4-1.429-7.428T742 742.286t-7.143-4.572-6.286-4q-1.142-1.143-4-3.428t-4-3.143-4.285-2.572-4.857-1.142-5.715.571l-1.714.571q-1.714.572-3.143 1.429t-3.143 1.714-2.285 1.715 0 1.428q-12-9.714-20.572-12.571-2.857-.572-6.286-3.143t-6-4-5.714-.857-6.571 4q-2.857 2.857-3.429 8.571t-1.143 7.429q-4-2.857 0-10t1.143-10.572q-1.714-3.428-6-2.571T634 709.714t-6.571 4.857-5.143 3.715-4.857 3.143-4.858 4.285q-1.714 2.286-3.428 6.857t-2.857 6.286q-1.143-2.286-6.572-3.714T594.286 732q1.143 5.714 2.285 20t2.858 21.714q4 17.715-6.858 27.429Q577.143 815.429 576 824q-2.286 12.571 6.857 14.857 0 4-4.571 11.714t-4 12.286q0 3.429 1.143 9.143z"/></svg>