<svg class="icon" width="64" height="63.94" viewBox="0 0 1025 1024" xmlns="http://www.w3.org/2000/svg"><path d="M879.243 586.81c-16.323-43.266-79.32-141.551-80.064-190.941h-.374c.125-2.628.374-5.254.374-7.877 0-179.445-128.665-324.87-287.365-324.87-158.765 0-287.369 145.425-287.369 324.87 0 2.623.252 5.249.312 7.877h-.312c-.743 49.39-63.677 147.675-80.063 190.941-16.387 43.392-20.484 87.156-12.912 121.922 7.573 34.635 13.779 56.144 20.98 62.896 7.137 6.877 13.964 14.13 35.627-1.125 17.377-14.382 36.368-43.641 36.368-43.641s15.705 45.39 50.77 80.03c-27.497 13.003-67.278 41.89-70.134 60.771-2.73 18.76 41.708 90.159 146.103 91.784 104.396 1.5 139.09-43.642 142.507-47.144 9.742-10.253 18.122-16.504 18.122-16.504s8.44 6.25 18.123 16.504c3.411 3.502 38.106 48.644 142.504 47.144 104.392-1.626 148.832-73.025 146.04-91.784-2.794-18.88-42.639-47.768-70.073-60.77 35.003-34.641 50.771-80.031 50.771-80.031s18.993 29.26 36.372 43.64c21.598 15.256 28.424 8.002 35.623 1.126 7.201-6.752 13.347-28.26 20.979-62.896 7.574-34.766 3.418-78.53-12.909-121.922z"/></svg>