<svg class="icon" width="64" height="64" viewBox="0 0 1024 1024" xmlns="http://www.w3.org/2000/svg"><path d="M995.574 208.103c-35.578 15.777-73.844 26.445-113.983 31.251 40.955-24.573 72.424-63.444 87.26-109.776-38.353 22.728-80.821 39.263-126.01 48.15-36.21-38.57-87.773-62.66-144.838-62.66-109.6 0-198.434 88.833-198.434 198.429 0 15.566 1.751 30.713 5.137 45.22C339.8 350.436 193.57 271.427 95.695 151.37c-17.077 29.32-26.869 63.384-26.869 99.773 0 68.853 35.029 129.58 88.289 165.185-32.524-1.028-63.112-9.943-89.895-24.816-.026.815-.026 1.665-.026 2.509 0 96.147 68.4 176.336 159.166 194.564-16.653 4.533-34.185 6.95-52.292 6.95-12.785 0-25.204-1.24-37.324-3.565 25.237 78.825 98.531 136.195 185.372 137.8-67.918 53.223-153.485 84.93-246.46 84.93-16.018 0-31.795-.936-47.332-2.781 87.804 56.312 192.115 89.166 304.189 89.166 365.007 0 564.584-302.376 564.584-564.614 0-8.615-.18-17.166-.573-25.662 38.78-27.99 72.42-62.927 99.017-102.705h.033zm0 0"/></svg>