<svg class="icon" width="64" height="64" viewBox="0 0 1024 1024" xmlns="http://www.w3.org/2000/svg"><path d="M362.403 95.116C163.142 95.116 0 230.566 0 403.339c0 99.33 54.18 181.202 145.082 244.412l-36.12 108.962 126.42-63.812c45.15 9.03 81.871 18.06 127.021 18.06 11.438 0 22.876-.602 33.712-1.204-7.224-24.08-11.438-49.364-11.438-75.852 0-158.326 136.052-286.552 308.224-286.552 12.04 0 23.478.602 34.916 2.408C696.513 203.476 540.595 95.116 362.403 95.116zM240.8 339.527c-24.682 0-44.548-19.866-44.548-44.548 0-24.682 19.866-44.547 44.548-44.547s44.547 19.865 44.547 44.547-19.866 44.548-44.547 44.548zm254.645 0c-24.682 0-44.548-19.866-44.548-44.548 0-24.682 19.866-44.547 44.548-44.547s44.548 19.865 44.548 44.547-19.866 44.548-44.548 44.548zM1024 629.691c0-145.082-145.082-263.074-307.621-263.074-172.172 0-308.224 117.992-308.224 263.074 0 145.081 136.052 263.073 308.224 263.073 36.12 0 72.24-9.03 108.961-18.06l99.33 54.18-27.09-90.3C969.82 783.802 1024 711.563 1024 629.691zm-403.34-45.752c-19.865 0-36.12-16.254-36.12-36.12s16.255-36.12 36.12-36.12 36.12 16.254 36.12 36.12-16.253 36.12-36.12 36.12zm196.854 0c-19.866 0-36.12-16.254-36.12-36.12s16.254-36.12 36.12-36.12 36.12 16.254 36.12 36.12-15.652 36.12-36.12 36.12z"/></svg>